<svg xmlns="http://www.w3.org/2000/svg" xmlns:xlink="http://www.w3.org/1999/xlink" width="25" height="25"><defs><clipPath id="clip1"><path d="M0 0h25v25H0z"/></clipPath><filter id="alpha" filterUnits="objectBoundingBox" x="0%" y="0%" width="100%" height="100%"><feColorMatrix in="SourceGraphic" values="0 0 0 0 1 0 0 0 0 1 0 0 0 0 1 0 0 0 1 0"/></filter><mask id="mask0"><g filter="url(#alpha)"><path fill-opacity=".8" d="M0 0h25v25H0z"/></g></mask><g id="surface5" clip-path="url(#clip1)"><path d="M9.773 14.918c-.902 0-1.64-.738-1.64-1.637 0-.902.738-1.64 1.64-1.64.899 0 1.637.738 1.637 1.64 0 .43-.172.844-.484 1.153a1.617 1.617 0 01-1.153.484zm0-7.11a5.466 5.466 0 00-5.472 5.473 5.466 5.466 0 005.472 5.469 5.465 5.465 0 005.47-5.469c-.016-3.027-2.462-5.472-5.47-5.472zm0 0" fill="#fff"/></g></defs><g id="surface1"><path d="M25 12.5c0 .203 0 .402-.012.617-.015.203-.027.406-.043.621-.011.2-.039.403-.078.602-.027.203-.07.406-.11.605-.038.203-.081.403-.132.606-.055.203-.11.39-.164.59-.05.203-.121.39-.188.578-.066.191-.148.39-.214.578-.082.191-.16.379-.243.566-.093.188-.175.364-.28.551-.095.176-.204.363-.298.54-.105.171-.215.347-.32.523-.11.175-.23.335-.352.496-.12.16-.242.324-.375.484-.136.16-.27.309-.402.469-.137.148-.285.297-.418.445-.148.149-.297.281-.445.418-.145.133-.309.266-.469.402-.16.133-.324.254-.484.375-.16.122-.336.243-.496.352-.176.105-.352.227-.524.32-.176.11-.351.203-.539.297-.176.094-.363.188-.55.281a4.746 4.746 0 01-.567.243 6.315 6.315 0 01-.578.214 7.666 7.666 0 01-.578.188 11.19 11.19 0 01-1.195.297c-.2.039-.403.082-.606.11-.2.023-.402.05-.602.077-.203.016-.406.043-.62.043-.2.012-.403.012-.618.012-.203 0-.402 0-.617-.012-.203-.015-.406-.027-.621-.043a4.408 4.408 0 01-.602-.078c-.203-.027-.406-.07-.605-.11a11.19 11.19 0 01-.606-.132c-.203-.055-.39-.11-.59-.164-.203-.05-.39-.121-.578-.188-.191-.066-.39-.148-.578-.214-.191-.082-.379-.16-.566-.243-.188-.093-.364-.175-.551-.28-.176-.095-.363-.204-.54-.298-.171-.105-.347-.215-.523-.32a6.63 6.63 0 01-.496-.352c-.16-.12-.324-.242-.484-.375-.16-.136-.309-.27-.469-.402-.148-.137-.297-.285-.445-.418-.149-.148-.281-.297-.418-.445-.133-.145-.266-.309-.402-.469-.133-.16-.254-.324-.375-.484-.122-.16-.243-.336-.352-.496-.105-.176-.227-.352-.32-.524a6.531 6.531 0 01-.297-.539 21.567 21.567 0 01-.281-.55 4.746 4.746 0 01-.243-.567 6.315 6.315 0 01-.214-.578 7.666 7.666 0 01-.188-.578 11.19 11.19 0 01-.297-1.195c-.039-.2-.082-.403-.11-.606-.023-.2-.05-.402-.077-.602-.016-.203-.043-.406-.043-.62C0 12.901 0 12.702 0 12.5s0-.402.012-.617c.015-.203.027-.406.043-.621.011-.2.039-.403.078-.602.043-.203.07-.406.11-.605.038-.203.081-.403.132-.606.055-.187.11-.375.164-.578.05-.203.121-.39.188-.578.066-.188.148-.39.214-.578.082-.188.16-.375.243-.563.078-.191.175-.363.28-.554.095-.172.204-.36.298-.535.093-.176.215-.352.32-.524.11-.176.23-.336.352-.5.12-.16.242-.32.375-.484.136-.16.27-.309.402-.47.137-.147.285-.296.418-.444.148-.145.297-.282.445-.414.145-.137.309-.27.469-.403.16-.136.324-.258.484-.379.16-.12.336-.242.496-.347a6.5 6.5 0 01.524-.325c.176-.093.351-.199.539-.296.176-.094.363-.188.55-.282.188-.093.376-.172.567-.242a7.72 7.72 0 01.578-.215 9.97 9.97 0 01.578-.187c.2-.055.387-.106.59-.16.203-.055.403-.094.606-.137.199-.04.402-.078.605-.106l.602-.082c.203-.011.406-.039.62-.039C12.099 0 12.298 0 12.5 0s.402 0 .617.012c.203.015.406.027.621.043.2.011.403.039.602.078.203.027.406.07.605.11.203.038.403.081.606.132.203.055.39.11.59.164.203.05.39.121.578.188.191.066.39.148.578.214.191.082.379.16.566.243.188.078.364.175.551.28.176.095.363.204.54.298.171.093.347.215.523.32.175.11.335.23.496.352.16.12.324.242.484.375.16.136.309.27.469.402.148.137.297.285.445.418.149.148.281.297.418.445.133.145.266.309.402.469.133.16.254.324.375.484.122.16.243.336.352.496.105.176.227.352.32.524.094.176.203.351.297.539.094.176.188.363.281.55.094.188.176.376.243.567.082.188.148.375.214.578.067.188.137.387.188.578.055.2.11.387.164.59.05.203.094.403.133.606.039.199.082.402.11.605.023.2.05.402.077.602.016.203.043.406.043.62.012.216.012.415.012.618zm0 0" fill="#00aff0"/><use xlink:href="#surface5" mask="url(#mask0)"/><path d="M15.914 11.91c1.383.402 3.024 0 3.024 0-.47 2.082-1.989 3.371-4.165 3.535a5.465 5.465 0 01-5.015 3.293l1.64-5.215c1.692-5.363 2.555-5.726 6.547-5.726H20.7c-.457 2.043-2.043 3.586-4.785 4.113zm0 0" fill="#fff"/></g></svg>