<svg xmlns="http://www.w3.org/2000/svg" width="24.18" height="24.18" viewBox="237.91 237.91 24.18 24.18"><g transform="matrix(.13 0 0 .13 250 250)" id="5H6pCQhcAe3YGmPtpVE0r"><path vector-effect="non-scaling-stroke" transform="translate(-93 -93)" d="M186 93c0 1.5 0 3-.1 4.6-.1 1.5-.2 3-.3 4.6-.1 1.5-.3 3-.6 4.5-.2 1.5-.5 3-.8 4.5-.3 1.5-.6 3-1 4.5s-.8 2.9-1.2 4.4c-.4 1.5-.9 2.9-1.4 4.3-.5 1.4-1.1 2.9-1.6 4.3l-1.8 4.2c-.7 1.4-1.3 2.7-2.1 4.1-.7 1.3-1.5 2.7-2.2 4l-2.4 3.9c-.8 1.3-1.7 2.5-2.6 3.7-.9 1.2-1.8 2.4-2.8 3.6-1 1.2-2 2.3-3 3.5-1 1.1-2.1 2.2-3.1 3.3-1.1 1.1-2.2 2.1-3.3 3.1-1.1 1-2.3 2-3.5 3-1.2 1-2.4 1.9-3.6 2.8-1.2.9-2.5 1.8-3.7 2.6-1.3.8-2.6 1.7-3.9 2.4-1.3.8-2.6 1.5-4 2.2-1.3.7-2.7 1.4-4.1 2.1-1.4.7-2.8 1.3-4.2 1.8-1.4.6-2.8 1.1-4.3 1.6-1.4.5-2.9 1-4.3 1.4-1.4.4-2.9.8-4.4 1.2-1.5.4-3 .7-4.5 1-1.5.3-3 .6-4.5.8l-4.5.6c-1.5.1-3 .3-4.6.3-1.5.1-3 .1-4.6.1-1.5 0-3 0-4.6-.1-1.5-.1-3-.2-4.6-.3-1.5-.1-3-.3-4.5-.6-1.5-.2-3-.5-4.5-.8-1.5-.3-3-.6-4.5-1s-2.9-.8-4.4-1.2c-1.5-.4-2.9-.9-4.3-1.4-1.4-.5-2.9-1.1-4.3-1.6l-4.2-1.8c-1.4-.7-2.7-1.3-4.1-2.1-1.3-.7-2.7-1.5-4-2.2l-3.9-2.4c-1.3-.8-2.5-1.7-3.7-2.6-1.2-.9-2.4-1.8-3.6-2.8-1.2-1-2.3-2-3.5-3-1.1-1-2.2-2.1-3.3-3.1-1.1-1.1-2.1-2.2-3.1-3.3-1-1.1-2-2.3-3-3.5-1-1.2-1.9-2.4-2.8-3.6-.9-1.2-1.8-2.5-2.6-3.7-.8-1.3-1.7-2.6-2.4-3.9-.8-1.3-1.5-2.6-2.2-4-.7-1.3-1.4-2.7-2.1-4.1-.7-1.4-1.3-2.8-1.8-4.2-.6-1.4-1.1-2.8-1.6-4.3-.5-1.4-1-2.9-1.4-4.3-.4-1.4-.8-2.9-1.2-4.4-.4-1.5-.7-3-1-4.5-.3-1.5-.6-3-.8-4.5l-.6-4.5c-.1-1.5-.3-3-.3-4.6C0 96 0 94.5 0 93c0-1.5 0-3 .1-4.6.1-1.5.2-3 .3-4.6.1-1.5.3-3 .6-4.5s.5-3 .8-4.5c.3-1.5.6-3 1-4.5.4-1.4.8-2.8 1.2-4.3.4-1.5.9-2.9 1.4-4.3.5-1.4 1.1-2.9 1.6-4.3l1.8-4.2c.6-1.4 1.3-2.7 2.1-4.1.7-1.3 1.5-2.7 2.2-4 .7-1.3 1.6-2.6 2.4-3.9.8-1.3 1.7-2.5 2.6-3.7.9-1.2 1.8-2.4 2.8-3.6 1-1.2 2-2.3 3-3.5 1-1.1 2.1-2.2 3.1-3.3 1.1-1.1 2.2-2.1 3.3-3.1 1.1-1 2.3-2 3.5-3 1.2-1 2.4-1.9 3.6-2.8 1.2-.9 2.5-1.8 3.7-2.6 1.2-.8 2.6-1.7 3.9-2.4 1.3-.7 2.6-1.5 4-2.2 1.3-.7 2.7-1.4 4.1-2.1 1.4-.7 2.8-1.3 4.2-1.8 1.4-.6 2.8-1.1 4.3-1.6 1.4-.5 2.9-1 4.3-1.4 1.5-.4 2.9-.8 4.4-1.2 1.5-.4 3-.7 4.5-1 1.5-.3 3-.6 4.5-.8l4.5-.6c1.5-.1 3-.3 4.6-.3C90 0 91.5 0 93 0c1.5 0 3 0 4.6.1 1.5.1 3 .2 4.6.3 1.5.1 3 .3 4.5.6 1.5.2 3 .5 4.5.8 1.5.3 3 .6 4.5 1s2.9.8 4.4 1.2c1.5.4 2.9.9 4.3 1.4 1.4.5 2.9 1.1 4.3 1.6l4.2 1.8c1.4.6 2.7 1.3 4.1 2.1 1.3.7 2.7 1.5 4 2.2 1.3.7 2.6 1.6 3.9 2.4 1.3.8 2.5 1.7 3.7 2.6 1.2.9 2.4 1.8 3.6 2.8 1.2 1 2.3 2 3.5 3 1.1 1 2.2 2.1 3.3 3.1 1.1 1.1 2.1 2.2 3.1 3.3 1 1.1 2 2.3 3 3.5 1 1.2 1.9 2.4 2.8 3.6.9 1.2 1.8 2.5 2.6 3.7.8 1.3 1.7 2.6 2.4 3.9.7 1.3 1.5 2.6 2.2 4 .7 1.3 1.4 2.7 2.1 4.1.7 1.4 1.3 2.8 1.8 4.2.6 1.4 1.1 2.8 1.6 4.3.5 1.4 1 2.9 1.4 4.3.4 1.5.8 2.9 1.2 4.4.4 1.5.7 3 1 4.5.3 1.5.6 3 .8 4.5l.6 4.5c.1 1.5.3 3 .3 4.6.1 1.6.1 3.1.1 4.6z" fill="#00aff0" id="YzjU1hM97NeN4PAKIeKZn"/><path vector-effect="non-scaling-stroke" transform="translate(-93 -93)" d="M72.7 111c-6.7 0-12.2-5.5-12.2-12.2 0-6.7 5.5-12.2 12.2-12.2 6.7 0 12.2 5.5 12.2 12.2 0 3.2-1.3 6.3-3.6 8.6s-5.4 3.6-8.6 3.6zm0-52.9C50.2 58.1 32 76.3 32 98.8c0 22.5 18.2 40.7 40.7 40.7 22.5 0 40.7-18.2 40.7-40.7-.1-22.5-18.3-40.7-40.7-40.7z" fill="#fff" opacity=".8" id="G7CX-33yuAQGdKZ4PHf0e"/><path vector-effect="non-scaling-stroke" transform="translate(-93 -93)" d="M118.4 88.6c10.3 3 22.5 0 22.5 0-3.5 15.5-14.8 25.1-31 26.3-6.4 14.9-21.1 24.5-37.3 24.5l12.2-38.8c12.6-39.9 19-42.6 48.7-42.6H154c-3.4 15.2-15.2 26.7-35.6 30.6z" fill="#fff" id="TH5A1doRdEUKqppqE7Hp5"/></g></svg>